<svg xmlns="http://www.w3.org/2000/svg" xmlns:xlink="http://www.w3.org/1999/xlink" width="500" height="500" viewBox="0 0 375 375"><clipPath id="a"><path transform="scale(.24)" d="M0 0h1562.5v1562.5H0z" fill-rule="evenodd"/></clipPath><g clip-path="url(#a)"><path d="M0 0h375v375H0z" fill="#fff"/></g><clipPath id="b"><path transform="scale(.24)" d="M0 0h1562.5v1562.5H0z" fill-rule="evenodd"/></clipPath><g clip-path="url(#b)"><path d="M0 0h375v375H0z"/></g><clipPath id="c"><path transform="scale(.24)" d="M0 0h1562.5v1562.5H0z" fill-rule="evenodd"/></clipPath><g data-name="H1" clip-path="url(#c)"><symbol id="d"><path d="M.262.56C.352.56.421.54.468.498.515.458.539.395.539.31V.009H.362v.07C.335.026.282 0 .202 0a.25.25 0 0 0-.109.022.166.166 0 0 0-.07.059A.163.163 0 0 0 0 .167c0 .051.02.091.059.119.04.029.1.043.182.043h.108C.346.386.307.415.234.415A.255.255 0 0 1 .087.368L.023.497c.03.02.066.035.109.046a.512.512 0 0 0 .13.017M.255.12c.022 0 .041.005.058.016a.09.09 0 0 1 .036.047V.23H.267C.212.23.184.212.184.175c0-.017.006-.03.019-.04A.082.082 0 0 1 .255.12z"/></symbol><symbol id="e"><path d="M.021.542h.19V0h-.19v.542m.095.06a.12.12 0 0 0-.084.029A.093.093 0 0 0 0 .703c0 .029.01.053.032.072a.12.12 0 0 0 .084.029C.151.804.179.794.2.776a.087.087 0 0 0 .032-.07C.232.676.222.651.2.631A.12.12 0 0 0 .116.602z"/></symbol><symbol id="f"><path d="M.341.745a.261.261 0 0 0 .23-.133.291.291 0 0 0 .036-.147.297.297 0 0 0-.036-.148.251.251 0 0 0-.23-.132.202.202 0 0 0-.151.057V0H0v.736h.181V.682c.035.042.089.063.16.063M.301.336c.033 0 .06.011.082.034a.135.135 0 0 1 .032.095c0 .04-.01.071-.032.094a.106.106 0 0 1-.082.035.106.106 0 0 1-.082-.035.132.132 0 0 1-.032-.094c0-.04.01-.072.032-.095A.108.108 0 0 1 .301.336z"/></symbol><symbol id="g"><path d="M.311 0A.351.351 0 0 0 .15.036a.274.274 0 0 0-.111.1A.273.273 0 0 0 0 .281c0 .054.013.102.039.144A.267.267 0 0 0 .15.524.351.351 0 0 0 .311.56.304.304 0 0 0 .47.52.216.216 0 0 0 .565.411L.418.336C.393.385.358.409.31.409A.115.115 0 0 1 .225.375.13.13 0 0 1 .192.281c0-.04.011-.073.033-.096A.115.115 0 0 1 .31.151c.047 0 .083.024.108.073L.565.149A.221.221 0 0 0 .47.039.31.31 0 0 0 .311 0z"/></symbol><use xlink:href="#d" transform="matrix(47.46954 0 0 -47.46954 138.023 204.88)" fill="#fff"/><use xlink:href="#e" transform="matrix(47.46954 0 0 -47.46954 163.467 204.453)" fill="#fff"/><use xlink:href="#f" transform="matrix(47.46954 0 0 -47.46954 174.48 213.662)" fill="#fff"/><use xlink:href="#e" transform="matrix(47.46954 0 0 -47.46954 201.633 204.453)" fill="#fff"/><use xlink:href="#g" transform="matrix(47.46954 0 0 -47.46954 211.032 204.88)" fill="#fff"/></g><clipPath id="h"><path transform="scale(.24)" d="M692.449 745.238h62.353v106.757H692.45z" fill-rule="evenodd"/></clipPath><g clip-path="url(#h)"><path d="M166.188 178.857h14.965v25.604h-14.965z" fill="#fff"/></g><clipPath id="i"><path transform="scale(.24)" d="M697.751 742.104h53.125v109.375h-53.125z" fill-rule="evenodd"/></clipPath><g clip-path="url(#i)"><path d="m176.285 178.12-6.509.874c-.095.016-.19.095-.19.19l-2.096 13.954a.243.243 0 0 0 .27.27l3.937-.667c.159-.032.302.127.27.286l-3.016 11.16c-.032.142.063.285.222.285.08 0 .159-.048.206-.111l10.382-18.16c.095-.175-.048-.381-.238-.35l-5.397 1.064a.237.237 0 0 1-.27-.302l2.683-8.19a.236.236 0 0 0-.254-.302z"/></g></svg>