<?xml version="1.0" encoding="UTF-8" standalone="no" ?>
<!DOCTYPE svg PUBLIC "-//W3C//DTD SVG 1.1//EN" "http://www.w3.org/Graphics/SVG/1.1/DTD/svg11.dtd">
<svg xmlns="http://www.w3.org/2000/svg" xmlns:xlink="http://www.w3.org/1999/xlink" version="1.1" width="1920" height="1280" viewBox="0 0 1920 1280" xml:space="preserve">
<desc>Created with Fabric.js 5.2.4</desc>
<defs>
</defs>
<g transform="matrix(1 0 0 1 540 540)" id="13258211-2f59-4323-bb42-a6d289a92922"  >
</g>
<g transform="matrix(1 0 0 1 540 540)" id="9125c6b7-9958-478c-aca6-959f18ad9ea1"  >
<rect style="stroke: none; stroke-width: 1; stroke-dasharray: none; stroke-linecap: butt; stroke-dashoffset: 0; stroke-linejoin: miter; stroke-miterlimit: 4; fill: rgb(255,255,255); fill-rule: nonzero; opacity: 1; visibility: hidden;" vector-effect="non-scaling-stroke"  x="-540" y="-540" rx="0" ry="0" width="1080" height="1080" />
</g>
<g transform="matrix(681.68 0 0 -681.68 433.17 698.74)" clip-path="url(#CLIPPATH_116)"  >
<clipPath id="CLIPPATH_116" >
	<path transform="matrix(0.01 0 0 -0.01 4.63 3.95) translate(-781.25, -781.25)" d="M 0 0 L 1562.5 0 L 1562.5 1562.5 L 0 1562.5 z" stroke-linecap="round" />
</clipPath>
<path style="stroke: none; stroke-width: 1; stroke-dasharray: none; stroke-linecap: butt; stroke-dashoffset: 0; stroke-linejoin: miter; stroke-miterlimit: 4; fill: rgb(0,0,0); fill-rule: nonzero; opacity: 1;" vector-effect="non-scaling-stroke"  transform=" translate(-0.27, -0.28)" d="M 0.262 0.56 C 0.352 0.56 0.421 0.54 0.468 0.498 C 0.515 0.458 0.539 0.395 0.539 0.31 L 0.539 0.009 L 0.362 0.009 L 0.362 0.079 C 0.335 0.026 0.282 0 0.202 0 C 0.1644758092421169 -0.0009425111642543013 0.12722102050334255 0.006576803994030456 0.09300000000000003 0.02200000000000002 C 0.06459770529422681 0.03471662496728914 0.040341865936916924 0.055160832425593186 0.023000000000000034 0.08099999999999999 C 0.007502053405751909 0.1069772109113357 -0.0004616470533069343 0.13675452567129495 4.163336342344337e-17 0.16700000000000004 C 0 0.218 0.02 0.258 0.059 0.28600000000000003 C 0.099 0.31500000000000006 0.159 0.329 0.241 0.329 L 0.349 0.329 C 0.346 0.386 0.307 0.415 0.234 0.415 C 0.18132157791932113 0.4148932300519734 0.12996904591094977 0.3984743932873921 0.08700000000000002 0.368 L 0.023 0.497 C 0.053 0.517 0.089 0.532 0.132 0.543 C 0.17442575099130514 0.5542143173543052 0.21811720097605464 0.5599278146600032 0.26200000000000007 0.56 M 0.255 0.12 C 0.277 0.12 0.296 0.125 0.313 0.136 C 0.3299569286345657 0.14715856284266457 0.34264368022361813 0.16372182186170525 0.349 0.18300000000000002 L 0.349 0.23 L 0.267 0.23 C 0.212 0.23 0.184 0.212 0.184 0.175 C 0.184 0.15799999999999997 0.19 0.145 0.20299999999999999 0.13499999999999998 C 0.2181362842904249 0.1242592260839959 0.23646860496246852 0.11897105665936794 0.255 0.12000000000000001 z" stroke-linecap="round" />
</g>
<g transform="matrix(681.68 0 0 -681.68 693.89 609.38)" clip-path="url(#CLIPPATH_117)"  >
<clipPath id="CLIPPATH_117" >
	<path transform="matrix(0.01 0 0 -0.01 4.25 3.82) translate(-781.25, -781.25)" d="M 0 0 L 1562.5 0 L 1562.5 1562.5 L 0 1562.5 z" stroke-linecap="round" />
</clipPath>
<path style="stroke: none; stroke-width: 1; stroke-dasharray: none; stroke-linecap: butt; stroke-dashoffset: 0; stroke-linejoin: miter; stroke-miterlimit: 4; fill: rgb(0,0,0); fill-rule: nonzero; opacity: 1;" vector-effect="non-scaling-stroke"  transform=" translate(-0.12, -0.4)" d="M 0.021 0.542 L 0.211 0.542 L 0.211 0 L 0.02099999999999999 0 L 0.02099999999999999 0.542 M 0.11599999999999999 0.6020000000000001 C 0.08532055795201667 0.6005608607204568 0.055257090763363284 0.6109399148689204 0.03199999999999986 0.6310000000000002 C 0.011191476886369137 0.6490726398650801 -0.0005291127020642869 0.6754439664390554 6.938893903907228e-18 0.7029999999999998 C 0 0.732 0.01 0.756 0.032 0.7749999999999999 C 0.05525709076336345 0.7950600851310796 0.08532055795201675 0.8054391392795432 0.11600000000000008 0.8039999999999999 C 0.151 0.804 0.179 0.794 0.2 0.776 C 0.22096920161393974 0.7589104768258146 0.23279600972911543 0.7330393340738678 0.232 0.706 C 0.232 0.676 0.222 0.651 0.2 0.631 C 0.17674290923663658 0.6109399148689203 0.14667944204798333 0.6005608607204567 0.11600000000000003 0.602 z" stroke-linecap="round" />
</g>
<g transform="matrix(681.68 0 0 -681.68 979.94 761.77)" clip-path="url(#CLIPPATH_118)"  >
<clipPath id="CLIPPATH_118" >
	<path transform="matrix(0.01 0 0 -0.01 3.83 4.04) translate(-781.25, -781.25)" d="M 0 0 L 1562.5 0 L 1562.5 1562.5 L 0 1562.5 z" stroke-linecap="round" />
</clipPath>
<path style="stroke: none; stroke-width: 1; stroke-dasharray: none; stroke-linecap: butt; stroke-dashoffset: 0; stroke-linejoin: miter; stroke-miterlimit: 4; fill: rgb(0,0,0); fill-rule: nonzero; opacity: 1;" vector-effect="non-scaling-stroke"  transform=" translate(-0.3, -0.37)" d="M 0.341 0.745 C 0.43618350278682966 0.7459246663944072 0.5243222566318093 0.6949574739536146 0.5710000000000002 0.6119999999999999 C 0.5957550058931717 0.5670327229671419 0.6081750611042228 0.516317497522016 0.6070000000000001 0.4650000000000001 C 0.6080693196670833 0.41337603301754267 0.595661272925186 0.36236517418974307 0.571 0.3169999999999999 C 0.5257312118584626 0.23278569942243021 0.436549852954599 0.1816033543123867 0.341 0.18499999999999991 C 0.28493295174389693 0.18219256979866616 0.2302263272175652 0.20284341481853974 0.19000000000000017 0.24199999999999988 L 0.19000000000000009 0 L 0 0 L 0 0.736 L 0.181 0.736 L 0.181 0.682 C 0.216 0.7240000000000001 0.27 0.7450000000000001 0.34099999999999997 0.7450000000000001 M 0.301 0.336 C 0.33399999999999996 0.336 0.361 0.34700000000000003 0.383 0.37 C 0.4054641762145968 0.39638592401526557 0.4169215300905736 0.43039994333457177 0.41500000000000004 0.46499999999999997 C 0.41500000000000004 0.505 0.405 0.5359999999999999 0.383 0.5589999999999999 C 0.36214062092421573 0.5821534314767943 0.33214938007479394 0.5949545708637426 0.301 0.594 C 0.26985061992520604 0.5949545708637427 0.23985937907578425 0.5821534314767943 0.21899999999999997 0.5589999999999999 C 0.19650538246334123 0.5330258900442025 0.18502558755554754 0.49930399250255864 0.18699999999999994 0.46499999999999997 C 0.18699999999999997 0.425 0.19699999999999998 0.39299999999999996 0.21899999999999997 0.37 C 0.24019715222042232 0.34743813610121216 0.2700570181899806 0.33505721606505384 0.30099999999999993 0.336 z" stroke-linecap="round" />
</g>
<g transform="matrix(681.68 0 0 -681.68 1242.01 609.38)" clip-path="url(#CLIPPATH_119)"  >
<clipPath id="CLIPPATH_119" >
	<path transform="matrix(0.01 0 0 -0.01 3.45 3.82) translate(-781.25, -781.25)" d="M 0 0 L 1562.5 0 L 1562.5 1562.5 L 0 1562.5 z" stroke-linecap="round" />
</clipPath>
<path style="stroke: none; stroke-width: 1; stroke-dasharray: none; stroke-linecap: butt; stroke-dashoffset: 0; stroke-linejoin: miter; stroke-miterlimit: 4; fill: rgb(0,0,0); fill-rule: nonzero; opacity: 1;" vector-effect="non-scaling-stroke"  transform=" translate(-0.12, -0.4)" d="M 0.021 0.542 L 0.211 0.542 L 0.211 0 L 0.02099999999999999 0 L 0.02099999999999999 0.542 M 0.11599999999999999 0.6020000000000001 C 0.08532055795201667 0.6005608607204568 0.055257090763363284 0.6109399148689204 0.03199999999999986 0.6310000000000002 C 0.011191476886369137 0.6490726398650801 -0.0005291127020642869 0.6754439664390554 6.938893903907228e-18 0.7029999999999998 C 0 0.732 0.01 0.756 0.032 0.7749999999999999 C 0.05525709076336345 0.7950600851310796 0.08532055795201675 0.8054391392795432 0.11600000000000008 0.8039999999999999 C 0.151 0.804 0.179 0.794 0.2 0.776 C 0.22096920161393974 0.7589104768258146 0.23279600972911543 0.7330393340738678 0.232 0.706 C 0.232 0.676 0.222 0.651 0.2 0.631 C 0.17674290923663658 0.6109399148689203 0.14667944204798333 0.6005608607204567 0.11600000000000003 0.602 z" stroke-linecap="round" />
</g>
<g transform="matrix(681.68 0 0 -681.68 1490.46 698.68)" clip-path="url(#CLIPPATH_120)"  >
<clipPath id="CLIPPATH_120" >
	<path transform="matrix(0.01 0 0 -0.01 3.08 3.95) translate(-781.25, -781.25)" d="M 0 0 L 1562.5 0 L 1562.5 1562.5 L 0 1562.5 z" stroke-linecap="round" />
</clipPath>
<path style="stroke: none; stroke-width: 1; stroke-dasharray: none; stroke-linecap: butt; stroke-dashoffset: 0; stroke-linejoin: miter; stroke-miterlimit: 4; fill: rgb(0,0,0); fill-rule: nonzero; opacity: 1;" vector-effect="non-scaling-stroke"  transform=" translate(-0.28, -0.28)" d="M 0.311 0 C 0.25523536723750095 -0.0009616523429316649 0.20004433287347134 0.011379200061447617 0.14999999999999983 0.03600000000000009 C 0.10445116504342573 0.05840766346806292 0.06602248890843625 0.09302809241850388 0.03900000000000001 0.136 C 0.012702306023878625 0.17973785505975706 -0.0008087945792787862 0.22997143422534225 -1.3877787807814457e-17 0.281 C 0 0.335 0.013 0.383 0.039 0.42500000000000004 C 0.06587613269609933 0.4678474864311317 0.10436986207496696 0.5021797315528245 0.15000000000000008 0.524 C 0.2000443328734715 0.5486207999385525 0.25523536723750095 0.5609616523429317 0.31099999999999994 0.56 C 0.366663127149619 0.5614800782885204 0.42166355722628823 0.5476434921057106 0.4700000000000001 0.52 C 0.513248122774319 0.49565897335348774 0.5467953686403035 0.45716792283356855 0.565 0.411 L 0.418 0.336 C 0.393 0.385 0.358 0.409 0.31 0.409 C 0.2781822394473946 0.40991871627632886 0.24740684986476327 0.39760856044327636 0.22499999999999998 0.375 C 0.20195408186678226 0.3492919231437984 0.1900812273085982 0.3154722768265469 0.192 0.28100000000000014 C 0.192 0.24100000000000002 0.203 0.20800000000000002 0.225 0.18500000000000003 C 0.24740684986476327 0.16239143955672367 0.2781822394473946 0.15008128372367113 0.31 0.151 C 0.357 0.151 0.393 0.175 0.418 0.22399999999999998 L 0.565 0.149 C 0.546641124572296 0.1026711599168796 0.5131630398010426 0.06390706176069158 0.47 0.039000000000000035 C 0.42145224177491464 0.011987191754233115 0.3665371831688689 -0.0014825396019668147 0.31099999999999983 -3.469446951953614e-17 z" stroke-linecap="round" />
</g>
<g transform="matrix(14.33 0 0 14.33 761.08 699.31)" clip-path="url(#CLIPPATH_121)"  >
<clipPath id="CLIPPATH_121" >
	<path transform="matrix(0.24 0 0 0.24 0 0.01) translate(-723.63, -798.62)" d="M 692.449 745.238 L 754.8019999999999 745.238 L 754.8019999999999 851.9950000000001 L 692.45 851.9950000000001 z" stroke-linecap="round" />
</clipPath>
<path style="stroke: none; stroke-width: 1; stroke-dasharray: none; stroke-linecap: butt; stroke-dashoffset: 0; stroke-linejoin: miter; stroke-miterlimit: 4; fill: rgb(0,0,0); fill-rule: nonzero; opacity: 1;" vector-effect="non-scaling-stroke"  transform=" translate(-173.67, -191.66)" d="M 166.188 178.857 L 181.153 178.857 L 181.153 204.461 L 166.188 204.461 z" stroke-linecap="round" />
</g>
<g transform="matrix(14.33 0 0 14.33 760.76 694.01)" clip-path="url(#CLIPPATH_122)"  >
<clipPath id="CLIPPATH_122" >
	<path transform="matrix(0.24 0 0 0.24 0.2 -0.06) translate(-724.31, -796.79)" d="M 697.751 742.104 L 750.876 742.104 L 750.876 851.479 L 697.751 851.479 z" stroke-linecap="round" />
</clipPath>
<path style="stroke: none; stroke-width: 1; stroke-dasharray: none; stroke-linecap: butt; stroke-dashoffset: 0; stroke-linejoin: miter; stroke-miterlimit: 4; fill: rgb(255,255,255); fill-rule: nonzero; opacity: 1;" vector-effect="non-scaling-stroke"  transform=" translate(-173.64, -191.3)" d="M 176.285 178.12 L 169.776 178.994 C 169.681 179.01 169.586 179.089 169.586 179.184 L 167.49 193.138 C 167.4812033118057 193.21195703498995 167.50680801152203 193.28586369458037 167.55947215847084 193.33852784152919 C 167.61213630541965 193.391191988478 167.68604296501007 193.41679668819432 167.76000000000002 193.40800000000002 L 171.69700000000003 192.741 C 171.85600000000002 192.709 171.99900000000002 192.86800000000002 171.96700000000004 193.02700000000002 L 168.95100000000005 204.187 C 168.91900000000004 204.329 169.01400000000004 204.472 169.17300000000006 204.472 C 169.25300000000007 204.472 169.33200000000005 204.424 169.37900000000005 204.36100000000002 L 179.76100000000005 186.20100000000002 C 179.85600000000005 186.026 179.71300000000005 185.82000000000002 179.52300000000005 185.85100000000003 L 174.12600000000006 186.91500000000002 C 174.04460831145502 186.93011082744718 173.96123052836364 186.90165810276494 173.90605547341582 186.83994378204554 C 173.850880418468 186.77822946132613 173.83190511378635 186.6921983619067 173.85600000000005 186.61300000000003 L 176.53900000000004 178.42300000000003 C 176.56179456712482 178.34682414286058 176.54469765158612 178.26429075688637 176.49351757793494 178.20343885829323 C 176.44233750428373 178.14258695970005 176.36395541167698 178.11159806039896 176.28500000000005 178.12100000000004 z" stroke-linecap="round" />
</g>
</svg>